<?xml version="1.0" encoding="UTF-8"?><svg id="Layer_1" xmlns="http://www.w3.org/2000/svg" viewBox="0 0 1000 1000"><defs><style>.cls-1{fill:#be9e79;}</style></defs><path class="cls-1" d="M925.83,65.04c0-18.03-3.47-35.07-17.24-47.01-9-7.8-21.01-12.14-31.67-18.03H123.01c-40.08,16.43-48.83,29.66-48.83,73.82,0,161.13-.01,322.26,.06,483.39,0,4.83,.05,9.9,1.43,14.45,3.96,13,20.25,18.25,29.7,8.77,4.46-4.47,7.31-12.41,7.53-18.9,.84-25.36,.33-50.77,.37-76.16,0-2.7,.38-5.4,.64-8.94,31.06,21.01,58.02,44.83,82.32,71.71,41.37,45.74,69.93,98.89,92.5,155.97,43.36,109.69,117.39,192.99,220.14,250.84,2.49,1.4,4.91,2.93,7.36,4.39-72.52,1.59-144.12,1.62-215.73,1.46-2.58,0-5.83-1.2-7.64-2.98-27.35-27.07-49.68-57.47-62.57-94.24-8.59-24.5-12.56-49.68-13.6-75.52-.65-16.34-15.21-25.54-28.3-18.51-8.55,4.59-10.84,12.34-10.58,21.4,1.66,59.04,19.82,112.26,56.01,159.14,2.45,3.18,4.82,6.42,8.14,10.85-35.55,0-69.06,.02-102.57,0-19.68-.02-26.15-6.61-26.16-26.6-.02-72.26,.02-144.53-.06-216.79,0-4.51-.14-9.19-1.29-13.5-2.4-8.96-9.14-13.6-18.02-13.68-8.88-.08-15.67,4.45-18.26,13.35-1.16,3.97-1.38,8.33-1.38,12.51-.08,72.92-.08,145.83-.05,218.75,.02,40.93,24.02,65.02,64.85,65.02,240.56,.02,481.11,.02,721.67,0,40.93,0,64.99-24.02,65.02-64.85,.04-52.41,0-104.82,0-157.22,0-237.63-.04-475.25,.09-712.88Zm-83.6,712.85c6.52,4.37,14.59,2.61,20.74-2.88,7.48-6.69,14.61-13.77,23.02-21.76,.3,4.04,.67,6.76,.67,9.47,.03,57.61,.05,115.23,.01,172.84-.01,18.52-6.86,25.36-25.42,25.37-77.14,.03-154.29,.03-231.43-.04-3.52,0-7.23-.16-10.54-1.23-138.8-45.26-238.45-133.53-294.13-269.37-16.69-40.71-34.68-80.57-59.59-117.04-37.97-55.6-85.89-100.94-142.02-137.73-7.61-4.99-10.57-10.12-10.54-19.47,.38-116.53,.25-233.06,.25-349.59,0-21.19,6.18-27.36,27.33-27.39,22.96-.03,22.8,.03,31.28,21.65,18.29,46.59,26.84,94.96,26.81,144.92,0,14.32-.15,28.65,.05,42.97,.2,14.01,7.38,22.46,18.87,22.78,11.65,.32,19.96-8.54,20.02-22.79,.1-23.43,.05-46.88-.9-70.28-1.83-44.89-11.65-88.18-27.84-130.06-1.03-2.67-1.83-5.43-2.95-8.76h205.85c-2.39,3.93-4.21,7.21-6.28,10.31-53.12,79.8-80.49,168.34-89.19,263.16-8.78,95.68,1.75,189.15,36.03,279.08,32.64,85.6,81.55,159.79,158.83,212.17,45.76,31.02,96.39,47.97,151.9,48.98,5.8,.11,12.43-1.63,17.3-4.69,6.9-4.33,8.77-12.08,6.37-19.94-2.79-9.15-9.79-13.11-19.06-14.14-17.74-1.96-35.76-2.81-53.1-6.69-48.3-10.81-88.88-36.31-123.96-70.41-65.53-63.69-102.92-142.81-123.32-230.68-15.51-66.83-18.73-134.47-11.05-202.63,6.6-58.56,21.32-114.91,45.91-168.58,14.97-32.66,33.3-63.29,55.85-91.27,2.45-3.04,8.14-4.89,12.33-4.9,98.3-.27,196.6-.21,294.91-.21,32.88,0,65.75-.11,98.63,.06,14.82,.08,22.67,7.58,22.72,22.11,.17,58.26,.06,116.53,.03,174.8,0,.92-.32,1.84-.47,2.66-12-4.04-23.63-9.35-35.83-11.8-56.72-11.39-107.97,10.86-140.5,60.07-46.15,69.81-26.39,168.69,43.35,212.86,39.42,24.97,81.21,26.86,123.94,8.2,2.89-1.26,5.8-2.47,9.57-4.07v47.74c0,43.62,.19,87.24-.24,130.85-.05,5.26-2.14,11.6-5.51,15.54-13.29,15.56-27.85,30.05-41.11,45.63-4.32,5.07-8.63,12.39-8.34,18.47,.26,5.52,5.7,12.33,10.76,15.72Zm37.86-317.43c-51.08,40.71-125.83,19.85-149.06-48.98-15.32-45.39-7.34-87.68,27.51-122.32,33.93-33.73,85.29-35.41,122.15-4.78,3.14,2.61,5.65,7.88,5.73,11.97,.52,25.36,.26,50.73,.26,76.1,0,24.72-.23,49.44,.16,74.16,.1,6.25-1.99,10.06-6.75,13.85Z"/><path class="cls-1" d="M93.92,653.56c10.21-.14,19.33-9.43,19.2-19.57-.14-10.43-9.04-19.02-19.6-18.93-10.52,.1-19.31,8.96-19.18,19.33,.13,10.19,9.44,19.3,19.58,19.17Z"/><path class="cls-1" d="M680.02,621.04c-34.54-11.12-64.22-30.24-88.29-57.12-66.69-74.49-84.62-161.75-65.47-258.14,2.46-12.39,6.92-24.39,9.27-36.8,1.76-9.26-4.41-17.4-13.26-20.15-8.17-2.54-17.39,.91-21.86,8.64-1.92,3.33-3.19,7.1-4.34,10.79-23.16,73.89-22.27,147.59,4.53,220.16,25.62,69.36,69.52,123.83,136.77,157.29,12.98,6.46,26.96,10.92,36.5,14.71,16.6,.27,25.91-9.7,24.34-21.36-1.43-10.57-9-15.09-18.2-18.05Z"/><path class="cls-1" d="M585.61,186.41c2.58-2.47,4.76-5.41,7.51-7.65,15.32-12.46,30.16-25.64,46.37-36.84,11.09-7.67,24.26-12.27,36.26-18.69,8.53-4.57,11.28-12.37,9.27-21.56-1.86-8.46-9.86-14.15-20.88-14.08-2.08,.61-6.22,1.48-10.09,3.02-37.86,15.06-69.84,38.44-96.8,68.84-9.41,10.61-9.69,22.29-1.02,30.3,8.29,7.66,19.18,6.45,29.39-3.33Z"/><path class="cls-1" d="M750.89,630.44c-10.95-.57-19.75,7.04-20.45,17.68-.72,11.01,7.66,20.23,18.7,20.59,10.57,.34,19.54-7.86,20.1-18.38,.56-10.42-7.67-19.33-18.35-19.89Z"/></svg>