<?xml version="1.0" encoding="UTF-8"?><svg id="Layer_1" xmlns="http://www.w3.org/2000/svg" viewBox="0 0 1000 1000"><defs><style>.cls-1{fill:#be9e79;}</style></defs><path class="cls-1" d="M964.65,491.89c-83.44,83.44-166.89,166.89-250.69,250.7-7.48-7.83-14.57-15.24-22.45-23.49,2.39-2.51,5.08-5.45,7.9-8.27,86.72-86.72,173.41-173.49,260.31-260.02,5.35-5.33,7.56-10.54,7.36-18.01-.49-18.49-.16-37-.16-56.98-79.12,79.12-157.09,157.1-235.53,235.54-8.2-9.02-15.11-16.61-22.81-25.08,1.87-1.96,4.56-4.9,7.37-7.72,80.87-80.88,161.68-161.83,242.79-242.47,6.21-6.17,8.61-12.21,8.34-20.73-.56-17.86-.17-35.76-.17-53.69-78.17,78.18-156.09,156.11-234.42,234.45-9.22-9.68-16.46-17.27-26-27.27,2.66-1.67,6.42-3.19,9.06-5.83,81.21-81.03,162.27-162.21,243.54-243.18,5.5-5.47,8.53-10.79,7.98-18.77-.7-10.22-.17-20.52-.17-31.04-15.45-2.32-27.67-1.35-39.24,11.43-23.32,25.77-48.82,49.56-73.45,74.14-2.4,2.4-4.94,4.67-7.63,7.19-7.82-7.74-15.28-15.11-23.55-23.29,23.19-23.05,46.04-45.75,70.77-70.33-23.7,0-44.87-.25-66.03,.28-3.06,.08-6.43,3.45-8.97,5.98-37.61,37.42-75.09,74.96-112.62,112.46-2.65,2.65-5.41,5.18-8.43,8.07-7.71-7.88-15.04-15.38-22.81-23.33,33.86-33.59,67.78-67.25,101.71-100.91-.31-.87-.62-1.73-.93-2.6-15.6,0-31.27,.93-46.77-.27-14.27-1.1-24.1,3.76-34,14.02-34.43,35.7-69.93,70.37-104.94,105.52-2.41,2.42-4.09,5.56-6.17,8.43-8.65-9.36-15.76-17.06-23.96-25.94,32.54-32.28,66.58-66.06,102.51-101.71-23.99,0-45.21-.21-66.41,.25-2.78,.06-5.84,3.16-8.16,5.46-21.54,21.33-42.94,42.81-64.4,64.22-2.41,2.4-4.95,4.66-7.84,7.38-7.15-8.07-13.94-15.74-20.73-23.4,16.18-15.97,33.66-33.23,51.15-50.5-.61-1.05-1.23-2.1-1.84-3.15h-72.89v-33.38h10.84c164.69,0,329.37,0,494.06,0,18.99,0,23.78,4.79,23.79,23.76,0,270.77,0,541.53,0,812.3,0,18.96-4.82,23.79-23.78,23.79-260.81,0-521.62,.05-782.44-.02-106.4-.03-186.01-79.84-186.04-186.38-.05-207.38-.11-414.76,.03-622.14C7.83,97.33,68.76,21.89,157.62,7.5c36.62-5.93,74.81-2.28,112.29-2.65,5.04-.05,10.17,1.65,15.15,2.92,49.01,12.51,84.75,56.81,86.28,107.36,.54,17.9,.2,35.82,.21,53.74,0,191.88,.07,383.76-.03,575.63-.03,57.4-35.57,103.14-89.95,115.98-7.97,1.88-16.32,2.87-24.52,2.98-26.87,.38-53.75,.24-80.62,.13-13.65-.06-19.72-5.99-19.82-19.39-.16-19.98-.14-39.96,0-59.94,.09-13.98,6.08-19.77,20.42-19.82,24.81-.09,49.61,.02,74.42-.05,13.1-.03,20.68-6.08,20.8-16.33,.13-10.32-7.48-16.83-20.41-16.66-25.8,.33-51.94-1.46-77.31,2.09-41.96,5.88-70.38,44.57-67.37,86.85,2.97,41.59,37.85,75.7,79.83,76.11,68.21,.67,136.43,.31,204.65,.01,3.83-.02,8.45-2.51,11.32-5.28,13.08-12.67,25.66-25.85,38.94-39.38,7.93,8.74,14.98,16.51,23.48,25.88-6.07,4.7-13.12,10.16-20.16,15.61,.61,1.11,1.22,2.23,1.83,3.34,21.46,0,42.93,.26,64.38-.3,3-.08,6.2-3.85,8.79-6.43,42.94-42.81,85.79-85.71,128.68-128.57,2.65-2.65,5.41-5.18,8.4-8.03,7.8,7.83,15.2,15.25,23.45,23.53-39.57,39.53-78.92,78.82-119.96,119.81,23.39,0,44.58,.16,65.75-.21,2.55-.04,5.45-2.56,7.51-4.62,109.47-109.31,218.88-218.68,328.16-328.18,2.39-2.39,4.45-6.34,4.51-9.61,.41-20.27,.21-40.56,.21-60.84-.76-.44-1.51-.88-2.27-1.32ZM40.8,708.76c3.39-4.1,5.07-6.12,6.74-8.16,31.33-38.2,71.27-61.78,120.52-66.61,27.66-2.71,55.72-1.43,83.59-1.85,30.9-.47,58.16,9.11,81.38,29.73,1.32,1.17,3.08,1.85,5.44,3.23,0-10.17,.02-19.11,0-28.04-.12-52.46-35.07-87.5-87.38-87.6-14.7-.03-29.39,0-44.2,0v-32.48c47-1.92,93.54-4.85,130.27,33.29,8.25-54.68-29.28-99.43-82.2-99.99-16.05-.17-32.11-.03-47.98-.03v-32.54c47.07-1.81,93.62-4.67,130.83,33.94,2.16-23.87-.46-44.31-12.6-62.59-16.2-24.39-39.2-37.12-68.45-37.93-16.71-.46-33.44-.08-50.05-.08v-32.54c47.04-1.8,93.78-4.94,130.98,33.88,5.13-61.72-30.4-100.56-89.46-100.58-13.69,0-27.37,0-41.43,0v-32.47c47.15-1.94,93.85-4.85,131.04,33.97,6.58-64.04-38.34-105.01-93-100.86-12.56,.95-25.25,.14-37.95,.14v-32.48c47.02-1.95,93.54-4.79,131.55,34.65,0-14.02,.17-24.9-.03-35.78-.83-45.85-36.56-81.47-82.47-82.08-20.32-.27-40.65-.07-60.97-.06-89.83,.06-154.17,64.47-154.18,154.44-.02,168.09,0,336.18,0,504.27v13.2Zm925.65,221.01h-14.1c-251.48,0-502.96,.02-754.43-.08-9.26,0-18.61-.53-27.75-1.9-54.74-8.25-96.23-57.45-96.26-113.71-.03-56.27,41.31-106.84,96.18-113.37,30.25-3.6,61.22-3.05,91.75-1.69,25.81,1.15,44.67,25.45,43.49,51.42-1.15,25.26-21.96,45.98-47.55,46.93-11.01,.41-22.04,.11-33.07,.12-11.56,0-23.11,0-34.52,0v33.02c22.84,0,45.16,.38,67.45-.08,45.02-.93,80.85-37.8,80.8-82.65-.04-44.85-35.93-81.63-80.99-82.45-24.45-.44-48.92-.49-73.37,.04-76.29,1.65-140.97,66.14-143.2,142.38-2.52,86.3,63.74,154.99,150.3,155.04,255.27,.16,510.53,.06,765.8,.06h9.46v-33.07Zm.48-319.86c-95.64,95.62-191.31,191.28-286.83,286.79,10.82,0,22.94-1.28,34.68,.28,21.75,2.88,37.49-4.44,51.79-21.13,17.16-20.02,37.02-37.74,55.48-56.23,8.26,7.98,15.8,15.26,25.39,24.51-17.91,17.49-35.41,34.58-53.84,52.57,20.46,0,39.69,.39,58.89-.27,4.82-.17,10.68-2.55,14.11-5.91,29.05-28.4,57.21-57.72,86.63-85.73,10.33-9.84,15.1-19.73,13.99-33.98-1.2-15.49-.27-31.15-.27-46.74-1.07-.51-2.14-1.03-3.21-1.54-28.23,28.5-56.46,57-84.23,85.03-7.65-7.15-15.15-14.17-25.64-23.97,3.88-2.29,7.77-3.66,10.41-6.28,32.27-32,64.42-64.13,96.39-96.43,2.87-2.9,5.89-7.25,6-11.01,.59-20.27,.28-40.57,.28-59.96Zm-.22,231.76c-18.28,18.18-36.81,36.62-54.53,54.24h54.53v-54.24Z"/><path class="cls-1" d="M448.03,658.75c-6.34-6.74-13.39-14.23-19.6-20.83,120.5-120.48,241.36-241.32,362.53-362.48,6.16,6.3,13.48,13.79,19.99,20.44-120.83,120.81-241.72,241.68-362.92,362.86Z"/><path class="cls-1" d="M674.71,506.37c6.8,6.8,14.21,14.2,21.03,21.02-65.94,65.93-131.61,131.59-197.5,197.48-6.84-6.82-14.27-14.21-21.07-20.99,65.95-65.94,131.61-131.59,197.54-197.51Z"/><path class="cls-1" d="M498.73,839.93c-7.09-7-14.37-14.19-21.02-20.75,65.36-65.35,131.02-131,197-196.98,6.6,6.79,13.9,14.3,20.58,21.17-65.52,65.51-131.18,131.17-196.57,196.56Z"/><path class="cls-1" d="M513.69,476.11c-5.62-5.96-12.66-13.42-18.7-19.83,48.79-48.78,98.06-98.05,147.69-147.66,5.65,6,12.66,13.46,18.67,19.85-48.75,48.74-98.04,98.02-147.66,147.64Z"/><path class="cls-1" d="M526.84,308.43c5.87,6.14,12.94,13.54,19.07,19.95-37.97,37.96-76.25,76.24-114.87,114.85-5.7-6.23-12.64-13.79-18.65-20.36,37.59-37.59,75.86-75.86,114.45-114.45Z"/><path class="cls-1" d="M479.56,280.37c-15.51,15.5-31.48,31.47-47.79,47.77-6.43-6.78-13.47-14.21-19.76-20.84,15.75-15.6,31.95-31.63,48.51-48.03,5.51,6.11,12.53,13.89,19.04,21.1Z"/><path class="cls-1" d="M459.66,490.92c6.66,6.53,13.95,13.68,20.41,20.01-15.93,15.92-32.11,32.08-48.58,48.55-6.33-6.72-13.37-14.18-19.59-20.79,15.77-15.77,31.91-31.92,47.77-47.78Z"/><path class="cls-1" d="M432.5,790.8c-7.44-7.08-14.83-14.12-21.63-20.59,10.87-10.92,21.41-21.52,32.32-32.49,6.64,6.93,13.88,14.48,20.52,21.4-10.19,10.35-20.7,21.01-31.21,31.67Z"/><path class="cls-1" d="M405,168.31v-31.61h32.16v31.61h-32.16Z"/><path class="cls-1" d="M172.24,152.38h-31.43v-32.16h31.43v32.16Z"/><path class="cls-1" d="M172.61,251.41h-31.91v-32.09h31.91v32.09Z"/><path class="cls-1" d="M172.33,350.61h-31.72v-32.16h31.72v32.16Z"/><path class="cls-1" d="M140.57,417.62h31.8v31.98h-31.8v-31.98Z"/><path class="cls-1" d="M172.64,516.93v31.78h-31.97v-31.78h31.97Z"/></svg>