<?xml version="1.0" encoding="UTF-8"?><svg id="Layer_1" xmlns="http://www.w3.org/2000/svg" viewBox="0 0 1000 1000"><defs><style>.cls-1{fill:#be9e79;}</style></defs><path class="cls-1" d="M916.12,673.15c-12.73-10.48-28.56-17.18-42.98-25.6-.61,.7-1.21,1.4-1.82,2.09v-11.65c0-203.44-.07-406.89,.17-610.33C871.51,15.53,868.57,6.08,857.65,0H261.85c-2.06,1.5-5.08,2.56-5.99,4.58-2.77,6.16-7.47,13.3-6.22,18.91,1.25,5.62,8.27,10.52,13.71,14.4,2.71,1.93,7.55,1.13,11.43,1.14,52.09,.06,104.17,.04,156.26,.04h10.52c0,9.38,.5,17.23-.25,24.96-.29,3.07-2.65,6.89-5.23,8.65-13.5,9.2-13.27,25.28,.53,34.56,2.37,1.59,4.68,5.26,4.73,8.01,.38,22.13,.38,44.26,0,66.39-.05,2.75-2.36,6.42-4.73,8.01-13.81,9.28-14.04,25.36-.54,34.56,2.59,1.76,5.18,5.66,5.24,8.63,.44,21.8,.44,43.61,0,65.41-.06,3-2.53,6.98-5.09,8.73-13.2,9-13.93,25.82-.39,33.7,4.93,2.87,5.82,5.84,5.79,10.71-.17,21.15,.16,42.32-.32,63.46-.07,3.25-2.69,7.54-5.45,9.46-12.94,8.98-12.92,25.23,.03,34.22,2.75,1.91,5.34,6.21,5.42,9.47,.48,21.15,.14,42.31,.32,63.46,.04,4.91-.92,7.85-5.83,10.69-12.8,7.4-13.38,24.78-.88,32.17,6,3.54,6.7,7.44,6.69,13.21-.09,121.08-.06,242.16-.08,363.23,0,3.15-.28,6.3-.43,9.49H90.75v-30.57c7.31,0,13.82,0,20.32,0,6.51,0,13.02,.01,19.53-.01,8.43-.04,15.33-3.07,19.41-10.76,6.97-13.14-2.54-27.68-18.73-28.18-13.54-.42-27.11-.09-40.62-.09v-77.54c1.34-.28,1.97-.51,2.59-.52,11.72-.05,23.44,0,35.16-.11,14.8-.13,24.18-8.01,23.89-19.91-.28-11.59-9.36-19-23.7-19.11-12.6-.11-25.2-.02-38.02-.02v-78.14c13.92,0,27.23,.25,40.52-.07,12.63-.3,21.31-8.61,21.2-19.6-.1-10.99-8.79-18.84-21.5-19.35-3.25-.13-6.51-.03-9.77-.03-10.26,0-20.53,0-30.54,0v-78.12c5.67,0,10.81,.02,15.95,0,9.11-.04,18.26,.37,27.33-.28,10.46-.76,17.86-8.52,18.49-18.18,.62-9.47-6.34-18.23-16.39-20.03-3.8-.68-7.78-.53-11.67-.55-11.26-.06-22.51-.02-33.8-.02v-78.13c13.37,0,26.3-.05,39.23,.02,8.77,.05,16.09-2.71,20.38-10.79,6.98-13.14-2.54-27.68-18.74-28.18-13.54-.42-27.1-.09-40.61-.09v-77.54c1.34-.27,1.97-.51,2.59-.51,11.72-.05,23.44,0,35.16-.1,14.79-.13,24.17-8.01,23.88-19.91-.28-11.59-9.37-18.99-23.7-19.11-12.6-.11-25.19-.02-38.01-.02v-78.14c13.93,0,27.23,.25,40.52-.07,12.63-.3,21.3-8.62,21.2-19.6-.11-10.99-8.79-18.9-21.51-19.33-6.5-.22-13.02-.05-19.53-.05-7,0-13.99,0-20.76,0V109.37c5.68,0,10.81,.02,15.95,0,9.11-.04,18.26,.37,27.33-.29,10.46-.76,17.86-8.53,18.48-18.18,.62-9.48-6.34-18.22-16.39-20.02-3.8-.68-7.78-.53-11.67-.55-11.26-.06-22.51-.02-33.79-.02v-31.28c14.03,0,27.61,.15,41.19-.05,8.87-.13,15.71-3.99,19.18-12.5,3.18-7.79,1.21-14.74-4.45-20.61C144.14,3.61,141.31,1.94,138.78,0H64.55c-10.22,6-13.86,14.75-13.85,26.69,.22,315.74,.17,631.49,.18,947.23,0,19.3,6.65,26.06,25.7,26.06,125.99,.02,251.99,.02,377.98,0,19.29,0,26.04-6.66,26.06-25.7,.04-46.22,.01-92.44,.01-138.67,0-3.3,0-6.6,0-11.62,19.22,13.63,38.57,19.66,59.59,19.68,104.51,.1,209.01,.26,313.52-.1,38.89-.13,76.43-26.99,89.07-62.15,14.33-39.87,4.72-82.43-26.69-108.28Zm-367.46,130.75c-34.69,7.03-67.69-21.8-67.93-60.03-.33-52.08-.08-104.16-.09-156.24,0-2.86,0-5.71,0-9.53,8.92,0,16.98,.18,25.02-.04,12.79-.36,21.47-8.14,21.7-19.13,.24-11.31-8.7-19.5-21.98-19.84-7.78-.2-15.56-.04-24.04-.04v-78.15c8.85,0,16.97,.25,25.07-.06,12.54-.47,21.23-8.89,20.95-19.86-.26-10.66-8.66-18.56-20.78-19.04-8.12-.32-16.26-.06-25.16-.06v-78.16c7.78,0,15.79,.15,23.79-.03,13.35-.31,22.28-8.35,22.15-19.67-.13-11.31-9.05-19.01-22.51-19.33-7.48-.18-14.96-.2-22.45-.33-.25,0-.49-.37-1.26-.98v-76.85c7.87,0,15.85,.14,23.83-.03,13.41-.28,22.34-8.14,22.38-19.45,.03-11.31-8.9-19.24-22.28-19.54-7.75-.17-15.51-.03-23.85-.03V109.37c7.74,0,15.15,.07,22.55-.02,14.28-.17,23.38-7.64,23.58-19.24,.2-11.91-9.14-19.64-24.01-19.79-7.12-.07-14.25-.01-22.04-.01v-30.7h350.17v27.34c-9.17,3.95-18.16,6.85-25.96,11.67-2.88,1.79-4.16,8.12-4.09,12.35,.18,11.97,7.73,16.51,30.31,19.25v76.45c-22.82,2.74-30.47,7.87-30.58,20.22-.12,12.68,8.3,18.38,30.49,20.27v74.39c-9.33,3.79-18.14,6.38-25.77,10.96-2.96,1.77-4.42,8.01-4.49,12.24-.22,12.6,8.77,18.21,30.16,19.38v74.79c-8.94,3.53-17.79,6.04-25.47,10.54-2.99,1.75-4.53,7.93-4.69,12.17-.47,12.22,7.47,17.28,30.38,20.2v76.74c-14.37,.43-29.89,.98-30.41,20.91-.32,12.21,8.3,17.27,30.31,19.28v69.67h-11.72c-90.18,0-180.36,0-270.54,0-2.6,0-5.21-.07-7.81,.02-12.79,.48-21.46,8.14-21.73,19.15-.27,10.89,8.1,18.82,20.99,19.9,32,2.68,55.12,25.11,56.84,55.15,1.71,29.77-18.54,55.07-49.03,61.24Zm346.85-19.06c-11.13,13.05-25.92,19.65-42.98,19.69-77.07,.21-154.13,.09-231.2,.06-.6,0-1.2-.33-2.79-.79,24.55-38.79,24.67-76.96-.31-115.75,2.47-.25,3.93-.54,5.4-.54,75.77-.02,151.53-.13,227.3,.05,25.15,.06,43.88,11.68,54.19,34.56,10.14,22.51,6.38,43.95-9.61,62.71Z"/><path class="cls-1" d="M188.64,38.8c8.86,.31,15.61-4.04,18.84-12.53,3.43-9,.6-16.43-6.76-22.31C199,2.59,197.2,1.32,195.43,0h-11.72c-1.56,1.07-3.1,2.18-4.69,3.21-8.1,5.25-10.85,12.85-8.34,21.81,2.44,8.68,9.09,13.47,17.95,13.78Z"/><path class="cls-1" d="M259.86,109.31c9.75,.29,19.53,.06,29.29,.06,9.76,0,19.53,.22,29.29-.05,12.68-.36,21.36-8.44,21.39-19.42,.03-10.98-8.65-19.29-21.3-19.49-19.52-.3-39.06-.29-58.58,0-12.68,.19-21.36,8.42-21.39,19.4-.03,10.98,8.65,19.13,21.3,19.51Z"/><path class="cls-1" d="M259.99,226.5c9.76,.27,19.53,.05,29.29,.05,9.76,0,19.53,.23,29.29-.06,12.65-.38,21.32-8.55,21.27-19.54-.06-10.98-8.74-19.18-21.42-19.37-19.52-.28-39.06-.3-58.58,0-12.65,.2-21.32,8.53-21.27,19.52,.06,10.98,8.73,19.03,21.42,19.39Z"/><path class="cls-1" d="M319.13,304.79c-9.75-.35-19.52-.07-29.29-.08-10.09,0-20.19-.27-30.26,.06-12.58,.41-21.24,8.8-21.01,19.78,.22,10.66,8.61,18.86,20.7,19.08,19.85,.36,39.71,.35,59.55,.02,12.57-.21,21.24-8.78,21.01-19.76-.22-10.66-8.61-18.66-20.7-19.1Z"/><path class="cls-1" d="M319.04,421.99c-19.85-.34-39.71-.35-59.55,0-12.53,.21-21.21,8.88-20.93,19.84,.28,10.66,8.67,18.59,20.79,19.02,9.75,.34,19.52,.07,29.29,.07,10.09,0,20.19,.27,30.26-.06,12.53-.42,21.21-8.9,20.93-19.86-.28-10.66-8.67-18.78-20.79-18.99Z"/><path class="cls-1" d="M318.87,539.17c-19.85-.33-39.71-.34-59.55,.01-12.11,.21-20.5,8.37-20.75,19.02-.26,10.97,8.4,19.41,20.96,19.83,9.75,.33,19.52,.07,29.29,.06,10.09,0,20.19,.27,30.26-.07,12.11-.42,20.5-8.39,20.75-19.05,.26-10.97-8.41-19.6-20.96-19.81Z"/><path class="cls-1" d="M318.9,656.33c-9.75-.33-19.52-.07-29.29-.06-10.09,0-20.19-.27-30.26,.07-12.12,.42-20.51,8.36-20.78,19.02-.28,10.96,8.39,19.62,20.93,19.83,19.85,.34,39.71,.34,59.55,0,12.11-.21,20.51-8.34,20.78-19,.28-10.96-8.4-19.43-20.93-19.86Z"/><path class="cls-1" d="M318.61,773.53c-19.52-.31-39.06-.29-58.58,0-12.7,.18-21.38,8.34-21.47,19.32-.09,10.98,8.58,19.2,21.22,19.58,9.75,.3,19.52,.06,29.29,.06,9.76,0,19.53,.21,29.29-.05,12.7-.35,21.38-8.36,21.47-19.34,.09-10.98-8.58-19.37-21.22-19.56Z"/><path class="cls-1" d="M290.07,890.63c-10.09,0-20.18-.24-30.26,.06-12.65,.37-21.31,8.57-21.24,19.56,.07,10.98,8.75,19.16,21.44,19.35,19.52,.28,39.06,.3,58.58,0,12.64-.2,21.31-8.56,21.24-19.54-.07-10.98-8.75-19.01-21.44-19.37-9.43-.27-18.87-.05-28.31-.05Z"/><path class="cls-1" d="M634.96,109.31c9.76,.28,19.53,.06,29.29,.06,9.11,0,18.22,0,27.34,0,.65,0,1.3,.02,1.95-.01,12.66-.59,21.35-8.53,21.35-19.51,0-10.98-8.68-19.26-21.33-19.45-19.52-.29-39.06-.29-58.58,0-12.67,.19-21.35,8.45-21.35,19.43,0,10.98,8.67,19.1,21.33,19.47Z"/><path class="cls-1" d="M634.84,226.49c9.43,.3,18.87,.06,28.31,.06,10.09,0,20.18,.22,30.27-.05,12.7-.34,21.38-8.35,21.47-19.34,.09-10.98-8.58-19.37-21.21-19.57-19.52-.31-39.06-.29-58.58,0-12.71,.18-21.38,8.33-21.48,19.32-.09,10.98,8.58,19.2,21.21,19.59Z"/><path class="cls-1" d="M664.48,304.69c-9.11,0-18.22,0-27.34,0-.65,0-1.3-.02-1.95,.01-12.73,.54-21.41,8.31-21.56,19.3-.15,10.98,8.51,19.45,21.12,19.65,19.52,.32,39.05,.28,58.58,.02,12.73-.17,21.41-8.25,21.56-19.23,.16-11.32-8.77-19.41-22.1-19.7-9.43-.21-18.87-.04-28.31-.04Z"/><path class="cls-1" d="M634.94,460.87c9.76,.29,19.53,.06,29.29,.06,9.76,0,19.53,.22,29.29-.06,12.67-.36,21.35-8.46,21.37-19.44,.02-10.98-8.66-19.28-21.32-19.47-19.52-.29-39.06-.29-58.58,0-12.67,.19-21.35,8.44-21.37,19.42-.02,10.98,8.66,19.12,21.32,19.49Z"/><path class="cls-1" d="M693.53,539.13c-9.76-.28-19.53-.06-29.29-.06-9.76,0-19.53-.23-29.29,.06-12.66,.37-21.34,8.5-21.32,19.48,.01,10.98,8.69,19.24,21.36,19.42,19.52,.29,39.06,.29,58.58,0,12.66-.19,21.34-8.48,21.32-19.46-.01-10.98-8.7-19.08-21.36-19.44Z"/><path class="cls-1" d="M793.18,726.65c-25.31-.27-50.62-.25-75.92,0-12.7,.12-21.36,8.16-21.58,19.11-.24,11.27,8.68,19.55,21.88,19.81,12.33,.24,24.66,.05,36.99,.05,12.98,0,25.96,.25,38.93-.08,12.59-.32,21.18-8.6,21.08-19.59-.1-10.98-8.71-19.16-21.37-19.29Z"/><path class="cls-1" d="M851.48,726.68c-10.89,.06-19.78,9.35-19.34,20.23,.42,10.43,9.57,18.93,20,18.58,10.38-.35,19.24-9.53,19.03-19.72-.21-10.28-9.35-19.14-19.69-19.08Z"/></svg>