<?xml version="1.0" encoding="UTF-8"?><svg id="Layer_1" xmlns="http://www.w3.org/2000/svg" viewBox="0 0 1000 1000"><defs><style>.cls-1{fill:#be9e79;}</style></defs><path class="cls-1" d="M841.41,571.48v79.37c3.63,0,7.09,0,10.56,0,29.76,0,59.51-.07,89.27,.02,35.03,.1,58.47,23.48,58.66,58.41,.08,13.89,.07,27.78,0,41.67-.17,34.98-23.59,58.57-58.48,58.61-82.33,.09-164.65,.03-246.98,.03-210.61,0-421.22,0-631.83,0-40.36,0-62.52-22.16-62.53-62.51,0-13.56-.17-27.12,.05-40.67,.5-31.23,24.31-55.17,55.54-55.47,30.42-.29,60.84-.07,91.25-.07,3.58,0,7.15,0,11.28,0v-79.37c-3.19,0-6.65,0-10.11,0-29.76,0-59.51,.07-89.27-.02-35.08-.1-58.56-23.47-58.73-58.35-.07-13.89-.06-27.78,0-41.67,.15-35.08,23.48-58.6,58.38-58.68,44.63-.09,89.27-.02,133.9-.02,3.21,0,6.41,0,8.72,0-45.78-45.85-91.58-91.71-137.55-137.75,0,5.3,.15,11.42-.03,17.54-.44,14.65-10.57,25.06-24.04,24.89-13.09-.16-23.27-10.38-23.42-24.47-.27-26.12-.31-52.25,.02-78.37,.18-14.02,9.86-23.76,23.86-23.94,26.45-.34,52.9-.35,79.35,.02,13.42,.19,23.34,10.55,23.55,23.27,.22,13.11-9.88,23.49-23.78,24.12-6.45,.29-12.92,.05-21.25,.05,3.59,3.85,5.69,6.25,7.93,8.5,53.06,53.09,106.19,106.11,159.1,159.35,4.78,4.81,9.48,6.95,16.36,6.94,145.81-.19,291.62-.19,437.42,0,6.81,0,11.61-1.87,16.44-6.74,52.9-53.25,106.04-106.26,159.1-159.35,2.27-2.28,4.43-4.67,8.21-8.69-8.29,0-14.71,.21-21.12-.04-14-.56-24.14-10.7-24.09-23.83,.04-13.12,10.2-23.44,24.26-23.6,26.12-.3,52.24-.31,78.36,0,14.5,.18,24.03,9.95,24.18,24.64,.27,25.79,.27,51.59,0,77.38-.15,14.61-10.64,25.01-24.11,24.78-13.08-.22-22.89-10.46-23.35-24.59-.2-6.17-.03-12.34-.03-17.75-45.88,45.91-91.69,91.75-137.57,137.66,2.29,0,5.45,0,8.61,0,44.3,0,88.6-.04,132.9,.01,36.26,.05,59.4,23.25,59.51,59.56,.04,14.55,.19,29.1-.05,43.65-.53,31.21-24.35,55.11-55.61,55.43-30.41,.31-60.84,.08-91.25,.08-3.56,0-7.13,0-11.58,0Zm-341.36-47.62c96.83,0,193.67,0,290.5,0,48.91,0,97.82,0,146.74,0,14.08,0,15-.96,15.01-15.43,.01-10.25,0-20.49,0-30.74,0-17.07-.24-17.32-17.1-17.32-290.17,0-580.34,0-870.51,0-1.98,0-3.97,.08-5.95,0-8.09-.39-11.27,3.65-11.12,11.48,.23,11.9,.05,23.8,.06,35.7,0,15.69,.62,16.32,16.12,16.32,145.42,0,290.83,0,436.25,0Zm-1.07,238.1c145.08,0,290.17,0,435.25,0,2.64,0,5.29-.04,7.93,0,7.05,.1,10.2-3.46,10.15-10.4-.09-11.9-.02-23.8-.02-35.7,0-17.14-.25-17.39-17.02-17.39-290.17,0-580.34,0-870.51,0-2.31,0-4.63,.03-6.94,0-7.04-.09-10.2,3.47-10.16,10.4,.08,12.23,.01,24.46,.02,36.69,0,15.78,.6,16.39,16.04,16.39,145.08,0,290.17,0,435.25,0Zm-181.95-189.79h-109.86v78.16h109.86v-78.16Zm158.71,0h-109.86v78.15h109.86v-78.15Zm48.5,77.97h109.86v-78.15h-109.86v78.15Zm158.45,.07h110.18v-77.94h-110.18v77.94Z"/></svg>