<?xml version="1.0" encoding="UTF-8"?><svg id="Layer_1" xmlns="http://www.w3.org/2000/svg" viewBox="0 0 1000 1000"><defs><style>.cls-1{fill:#be9e79;}</style></defs><path class="cls-1" d="M705.14,0c5.69,4.22,11.96,7.85,16.99,12.75,38.41,37.54,76.59,75.32,114.82,113.05,15.79,15.58,15.78,25.38-.02,41.19-40.96,40.98-81.92,81.97-122.99,122.84-2.5,2.49-5.98,3.98-11.73,7.7,6.28,4.53,9.84,6.45,12.58,9.18,82.24,82.11,164.39,164.3,246.56,246.48,16.76,16.76,16.8,25.98,.19,42.59-130.06,130.04-260.12,260.08-390.18,390.11-16.66,16.66-25.72,16.59-42.61-.28-31.78-31.75-63.55-63.5-95.34-95.24-2.49-2.48-5.1-4.84-8.63-8.17-9.65,10.01-18.76,19.71-28.14,29.13-26.41,26.53-52.86,53.02-79.43,79.4-12.3,12.21-23.43,12.4-35.61,.29-40.4-40.16-80.69-80.44-120.88-120.8-12.43-12.48-12.25-23.74,.33-36.36,41.6-41.72,83.3-83.34,124.95-125.02,2.5-2.5,4.88-5.12,9.74-10.24-3.65-2.34-7.43-3.94-10.13-6.63-82.27-82.08-164.43-164.26-246.61-246.43-17.23-17.23-17.27-26.21-.14-43.34C168.69,272.39,298.5,142.56,428.44,12.87,433.4,7.91,439.67,4.26,445.33,0c3.26,0,6.51,0,9.77,0,5.54,4.38,11.57,8.27,16.56,13.21,32.1,31.78,64.02,63.75,95.81,95.83,2.43,2.45,3.48,6.27,5.16,9.45l4.71-1.45c2.11-2.9,3.88-6.14,6.38-8.66,31.4-31.57,62.82-63.1,94.45-94.44C683.38,8.77,689.61,4.62,695.38,0c3.26,0,6.51,0,9.77,0Zm-254.68,607.05c-81.86,81.75-164.16,163.95-245.71,245.4,31.28,31.3,63.2,63.24,94.14,94.2,81.73-81.66,163.95-163.82,245.65-245.45-31.24-31.26-63.14-63.18-94.08-94.15ZM794.36,148.26c-31.02-32.55-61.96-65.02-92.07-96.61-82.98,82.97-165.02,165-245.8,245.76,31.22,31.23,63.04,63.05,94.35,94.37,81.25-81.25,163.32-163.32,243.52-243.52Zm-218.25,521.03c31.41-31.42,62.84-62.86,92.84-92.87-81.77-81.69-164.31-164.15-245.58-245.33-30.46,30.45-61.88,61.85-92.79,92.74,81.64,81.62,164,163.96,245.52,245.47ZM449.95,52.89c-81.44,81.43-163.57,163.55-244.13,244.11,30.98,31.02,62.59,62.66,93.23,93.34,80.98-80.93,162.87-162.77,244.29-244.14-30.92-30.89-62.4-62.34-93.39-93.3Zm252.12,555.21c-81.35,81.37-163.2,163.24-244.14,244.21,30.5,30.71,61.75,62.17,92.2,92.83,81.44-81.42,163.3-163.27,244.43-244.39-30.61-30.67-61.78-61.9-92.49-92.66Zm218.82-33.26c-81.85-81.84-163.66-163.64-244.61-244.57-10.52,10.54-21.67,21.71-34.1,34.17,2.15,1.65,5.28,3.55,7.8,6.06,49.29,49.17,98.53,98.4,147.72,147.68,3.19,3.2,6.41,6.58,8.7,10.43,4.37,7.33,3.96,14.95-.93,22-4.89,7.06-12.08,10.66-20.2,8.16-5.88-1.81-11.79-5.49-16.18-9.85-49.9-49.48-99.53-99.24-149.15-149.01-2.48-2.49-4.14-5.79-5.52-7.77-12.06,12.27-22.44,22.83-31.67,32.23,81.03,81.07,162.86,162.93,244.2,244.31,31.07-31.04,62.77-62.7,93.94-93.84ZM140.43,361.13c2.71,2.83,5.11,5.43,7.61,7.94,48.77,48.78,97.57,97.53,146.3,146.36,3.19,3.2,6.34,6.62,8.67,10.46,4.64,7.64,3.13,17.92-2.94,24.29-6.58,6.89-16.78,8.58-25.02,3.63-3.57-2.15-6.76-5.06-9.74-8.02-24.68-24.55-49.28-49.19-73.89-73.81-26.9-26.91-53.79-53.84-79.25-79.31-11.21,11.22-22.07,22.09-31.84,31.87,80.83,80.82,162.66,162.64,243.94,243.9,31.04-30.91,62.74-62.48,93.94-93.54-81.71-81.69-163.8-163.76-245.94-245.89-10.03,10.12-20.55,20.73-31.84,32.13Z"/><path class="cls-1" d="M834.53,563.2c11.36,.38,20.51,9.87,20.11,20.85-.42,11.74-10.1,21.3-21.28,21.04-11.38-.27-20.95-10.32-20.63-21.66,.33-11.62,10.03-20.62,21.8-20.23Z"/><path class="cls-1" d="M330.89,560.42c11.31,.22,20.39,9.35,20.42,20.52,.03,11.47-9.62,20.92-21.28,20.84-11.69-.08-21.18-9.73-20.9-21.22,.29-11.67,9.7-20.38,21.76-20.15Z"/></svg>