<?xml version="1.0" encoding="UTF-8"?><svg id="Layer_1" xmlns="http://www.w3.org/2000/svg" viewBox="0 0 1000 1000"><defs><style>.cls-1{fill:#fff;}</style></defs><g id="Group_6" transform="translate(1 0)"><path id="Fill_94" class="cls-1" d="M687.54,1000H312.51C140,999.81,.21,860.02,.02,687.52V312.48C.21,139.98,140,.19,312.51,0h374.99c172.5,.19,312.3,139.98,312.48,312.48v374.99c-.16,172.5-139.94,312.31-312.44,312.53ZM312.51,93.86c-120.65,.21-218.41,97.97-218.62,218.62v374.99c.14,120.7,97.92,218.54,218.62,218.75h374.99c120.73-.14,218.56-97.98,218.7-218.7V312.48c-.21-120.67-97.99-218.43-218.66-218.62H312.51Z"/><path id="Fill_96" class="cls-1" d="M499.98,749.98c-138.06-.02-249.96-111.96-249.94-250.02,.02-138.06,111.96-249.96,250.02-249.94,138.03,.02,249.91,111.91,249.94,249.94-.14,138.02-112,249.88-250.02,250.02Zm0-406.26c-86.29,0-156.24,69.95-156.24,156.24s69.95,156.24,156.24,156.24,156.24-69.95,156.24-156.24c-.16-86.2-70.04-156.02-156.24-156.11v-.13Z"/><path id="Fill_98" class="cls-1" d="M768.77,197.93c8.86-.14,17.39,3.4,23.55,9.77,6.37,6.16,9.91,14.69,9.77,23.55,.14,8.86-3.4,17.39-9.77,23.55-6.16,6.37-14.69,9.91-23.55,9.77-8.86,.14-17.39-3.4-23.55-9.77-6.37-6.16-9.91-14.69-9.77-23.55-.14-8.86,3.4-17.39,9.77-23.55,6.16-6.37,14.69-9.91,23.55-9.77Z"/></g></svg>