<?xml version="1.0" encoding="UTF-8"?><svg id="Layer_1" xmlns="http://www.w3.org/2000/svg" viewBox="0 0 1000 1000"><defs><style>.cls-1{fill:#fff;}</style></defs><path id="Fill_92" class="cls-1" d="M1000,396.4c-35.96,5.42-72.52,5.63-108.54,.64,42.6-11.96,79.35-39.12,103.26-76.35-39.9,11.2-81.42,15.49-122.76,12.69-47.28-88.59-157.42-122.09-246.02-74.81-44.43,23.71-77.04,64.79-90.05,113.44-3.75,13.43-5.98,27.24-6.66,41.17-139.46-44.79-253.22-146.89-312.79-280.71-68.41,67.64-72.31,176.85-8.91,249.2-27.6-8.2-52.82-22.91-73.55-42.89l-.52,1.91c-22.3,83.62,17.14,171.41,94.47,210.27-16.09-.06-32.1-2.27-47.61-6.55-11.21-2.79-22.09-6.78-32.45-11.9,4.07,77.69,56.71,144.35,131.33,166.33-75.19,31.95-158.93,37.78-237.82,16.54-14.08-3.67-27.9-8.23-41.4-13.66,66.44,73.27,152.68,125.73,248.3,151.02,273.64,75.38,556.58-85.33,631.96-358.97,.63-2.29,1.25-4.59,1.85-6.89,2.1-7.75,3.74-15.35,5.43-22.87,41.29-15.51,79.4-38.41,112.47-67.59Z"/></svg>