<?xml version="1.0" encoding="UTF-8"?><svg id="Layer_1" xmlns="http://www.w3.org/2000/svg" xmlns:xlink="http://www.w3.org/1999/xlink" viewBox="0 0 1000 1000"><defs><style>.cls-1{clip-path:url(#clippath-11);}.cls-2{fill-rule:evenodd;}.cls-2,.cls-3{fill:#be9e79;}.cls-4{clip-path:url(#clippath-15);}.cls-5{clip-path:url(#clippath-14);}.cls-6{clip-path:url(#clippath-10);}.cls-7{fill:#010101;}</style><clipPath id="clippath-10"><path class="cls-3" d="M182.17,814.68l23.65,51.53,46.49-103.17h-46.53"/></clipPath><clipPath id="clippath-11"><path class="cls-3" d="M958.68,765.65v85.3l41.32,34.61v-119.91h-41.32Z"/></clipPath><clipPath id="clippath-14"><polygon class="cls-3" points="294.04 538.57 310.64 513.04 224.69 358.38 266.14 294.93 169.22 293.17 294.04 538.57"/></clipPath><clipPath id="clippath-15"><polygon class="cls-7" points="728.09 295.27 770.69 360.5 685.31 516.02 700.19 538.91 825.03 293.53 728.09 295.27"/></clipPath></defs><g><polygon class="cls-3" points="-.9 763.41 86.81 954.12 126.11 865.33 166.22 954.12 189.77 901.85 165.74 848.53 126.51 763.04 86.81 849.57 45.49 763.41 -.9 763.41"/><g><path class="cls-3" d="M182.17,814.68l23.65,51.53,46.49-103.17h-46.53"/><g class="cls-6"><rect class="cls-3" x="182.17" y="763.04" width="70.14" height="103.17"/></g></g><polygon class="cls-3" points="834.98 951.88 876.29 951.88 876.29 849.98 1000 951.88 1000 901.7 933.84 846.98 834.98 765.65 834.98 951.88"/><g><path class="cls-3" d="M958.68,765.65v85.3l41.32,34.61v-119.91h-41.32Z"/><g class="cls-1"><rect class="cls-3" x="958.68" y="765.65" width="41.32" height="119.91"/></g></g><polygon class="cls-3" points="724.83 771.93 634.44 954.12 643.35 954.12 670.59 954.12 672.29 954.12 679.5 954.12 679.99 954.12 736.1 954.12 707.36 898.86 699.17 915.96 707.36 898.86 729.41 853.83 745.91 887.26 745.84 887.26 779.47 954.12 786.4 954.12 788.23 954.12 815.47 954.12 824.38 954.12 733.86 772.04 729.28 763.04 724.83 771.93"/><path class="cls-3" d="M597.32,772.11l-90.39,182.19h101.67l-28.75-55.26,22.05-45.02,16.51,33.43h-.08l20.12,40c6.7-16.75,13.4-33.49,20.09-50.24l-52.19-104.98-4.58-9.01-4.46,8.89Z"/><polygon class="cls-3" points="272.56 769.98 182.17 952.17 191.08 952.17 218.33 952.17 220.03 952.17 227.23 952.17 227.72 952.17 283.84 952.17 255.09 896.91 246.91 914 255.09 896.91 277.14 851.88 293.65 885.31 293.57 885.31 327.21 952.17 334.13 952.17 335.96 952.17 363.21 952.17 372.11 952.17 281.6 770.1 277.02 761.09 272.56 769.98"/><path class="cls-3" d="M422.98,801.5c18.26,0,33.92,5.62,46.95,16.86,13.04,11.24,19.55,24.71,19.55,40.4s-6.52,29.24-19.55,40.41c-13.04,11.16-28.69,16.74-46.95,16.74v-114.41Zm-44.48-38.09v190.71h44.48c30.47,0,56.59-9.32,78.35-27.98,21.76-18.65,32.63-41.11,32.63-67.38s-10.88-48.62-32.63-67.31c-21.76-18.68-47.88-28.04-78.35-28.04h-44.48Z"/></g><g><g><path class="cls-7" d="M599.37,189.04l103.58,171.16-143.71,234.23-62.83-84.19c.04,5.22-.04,10.38-.18,15.56,.06-5.19,.15-10.37,.18-15.56l-62.82,84.19-143.72-234.23,103.58-171.16h-43.59l-106.97,173.73,186.03,311.6,66.3-95.73c.01-.16,.01-.31,.02-.47v.06l68.63,96.13,186.04-311.6-106.97-173.73h-43.6Z"/><polygon class="cls-7" points="70.78 237.14 292.72 663.99 349.17 561.25 323.52 518.07 293.79 570.87 140.23 278.84 279.22 277.65 302.32 236.31 70.78 237.14"/><polygon class="cls-7" points="495.8 198.83 413.28 358.64 359.7 453.81 385.01 496.02 496.54 293.02 607.93 495.74 631.75 450.89 579.81 358.64 497.3 198.83 496.59 197.32 495.8 198.83"/><polygon class="cls-7" points="713.87 277.65 852.86 278.84 699.3 570.87 668.28 515.75 643.78 561 700.36 663.99 922.07 237.14 690.77 236.31 713.87 277.65"/><g><polygon class="cls-3" points="294.04 538.57 310.64 513.04 224.69 358.38 266.14 294.93 169.22 293.17 294.04 538.57"/><g class="cls-5"><rect class="cls-3" x="117" y="344.72" width="245.86" height="142.29" transform="translate(-176.73 654.42) rotate(-89.81)"/></g></g><g><polygon class="cls-7" points="728.09 295.27 770.69 360.5 685.31 516.02 700.19 538.91 825.03 293.53 728.09 295.27"/><g class="cls-4"><rect class="cls-3" x="632.25" y="345.93" width="245.84" height="140.59" transform="translate(336.45 1170.01) rotate(-89.81)"/></g></g></g><polygon class="cls-3" points="402.96 494.71 496.63 329.55 588.82 494.71 555.83 553.86 496.43 478.74 435.4 555.41 402.96 494.71"/></g><path class="cls-2" d="M333.25,155.36c.84,3.22,3.41,5.37,6.4,6.22,1.43,.41,2.96,.52,4.45,.31,1.52-.22,2.99-.77,4.27-1.69,.98-.71,1.84-1.62,2.5-2.74,1.93,2.69,4.52,4.33,7.25,5.08,2.24,.61,4.57,.63,6.7,.13,2.17-.51,4.17-1.55,5.7-3.03,1.87-1.81,3.03-4.24,3-7.15-.03-2.47-1.03-4.88-3.02-6.59-1.68-1.44-4.05-2.36-7.11-2.33-.41,0-.79,.13-1.11,.35-2.13,.54-3.73,2.46-3.79,4.77-.06,2.78,2.14,5.08,4.92,5.14,2.58,.06,4.74-1.83,5.1-4.32,.69,.86,1.04,1.92,1.06,3.01,.02,1.74-.68,3.2-1.81,4.29-1,.97-2.35,1.66-3.84,2.01-1.53,.36-3.19,.35-4.77-.08-2.24-.61-4.34-2.09-5.75-4.63-.57-1.03-.97-2.14-1.19-3.29v-.02h0c-.1-.52-.16-1.04-.19-1.56-.09-1.68,.2-3.38,.88-4.96l.13-.3,.03-.05c1.27-2.71,3.63-5.04,6.59-6.29,2.94-1.25,6.5-1.43,10.2,.17,.21,.09,.38,.16,.49,.22h0c1.48,.7,3.1,1.75,4.85,3.05,1.77,1.32,3.71,2.92,5.76,4.66,2.55,2.15,5.28,4.15,8.15,5.95,.03,.02,.06,.04,.09,.05,7.69,4.81,16.39,8.23,25.28,9.58,10.99,1.67,22.29,.19,32.36-5.72,4.44-2.6,8.16-6.3,10.77-10.73,.48-.81,.92-1.65,1.32-2.51,.04,.12,.08,.23,.12,.34,2.63,7.1,8.25,12.13,14.94,14.85,6.6,2.69,14.29,3.13,21.18,1.09,.68-.2,1.31-.41,1.89-.62,3.22-1.19,6.19-2.96,8.77-5.13,2.59,2.17,5.56,3.93,8.77,5.13,.58,.21,1.21,.42,1.89,.62,6.89,2.04,14.57,1.6,21.18-1.09,6.69-2.72,12.31-7.75,14.94-14.85,.04-.11,.08-.22,.12-.34,.4,.86,.84,1.69,1.32,2.5,2.61,4.43,6.33,8.12,10.77,10.73,10.07,5.91,21.37,7.39,32.36,5.72,8.89-1.35,17.59-4.77,25.28-9.58,.03-.02,.06-.03,.08-.05,2.87-1.8,5.61-3.8,8.15-5.95,2.06-1.74,3.99-3.34,5.76-4.66,1.75-1.3,3.37-2.36,4.85-3.05h0c.11-.05,.27-.13,.49-.22,3.7-1.59,7.26-1.42,10.2-.17,2.96,1.26,5.32,3.59,6.59,6.29l.03,.05,.13,.3c.68,1.58,.97,3.29,.88,4.96-.03,.53-.09,1.05-.19,1.56h0v.02c-.23,1.15-.63,2.26-1.2,3.29-1.41,2.54-3.51,4.02-5.75,4.63-1.58,.43-3.24,.44-4.77,.08-1.49-.35-2.84-1.04-3.84-2.01-1.12-1.09-1.83-2.55-1.81-4.29,.01-1.09,.36-2.15,1.06-3.01,.35,2.49,2.52,4.38,5.1,4.32,2.78-.06,4.99-2.36,4.92-5.14-.05-2.31-1.65-4.22-3.79-4.77-.32-.22-.7-.35-1.11-.35-3.05-.03-5.42,.89-7.11,2.33-2,1.71-3,4.12-3.02,6.59-.03,2.91,1.13,5.34,3,7.15,1.53,1.48,3.53,2.53,5.7,3.03,2.13,.5,4.46,.49,6.7-.13,2.73-.75,5.32-2.39,7.25-5.08,.66,1.13,1.52,2.04,2.5,2.74,1.28,.92,2.75,1.47,4.27,1.69,1.49,.21,3.02,.1,4.45-.31,2.99-.86,5.56-3,6.4-6.22,.79-3.03-.09-5.43-1.69-6.99-.73-.71-1.61-1.24-2.54-1.56-.93-.32-1.93-.43-2.9-.33-2.15,.22-4.16,1.46-5.17,3.89-.41,1.01,.07,2.16,1.08,2.58,1.01,.42,2.16-.07,2.58-1.08,.38-.91,1.12-1.38,1.92-1.46,.4-.04,.83,0,1.23,.15,.39,.14,.76,.35,1.06,.64,.66,.64,1,1.71,.62,3.17-.45,1.73-1.93,2.91-3.66,3.4-.91,.26-1.89,.33-2.83,.2-.91-.13-1.78-.45-2.51-.97-1.39-1-2.34-2.82-2.24-5.6,.12-.65,.2-1.31,.23-1.98,.12-2.28-.27-4.59-1.19-6.73l-.22-.48c-1.67-3.55-4.75-6.6-8.62-8.24-3.88-1.65-8.53-1.89-13.32,.16-.15,.07-.35,.16-.61,.28h0c-1.76,.83-3.59,2.02-5.52,3.45-1.16,.87-2.35,1.81-3.58,2.82,.67-2.77,.39-5.37-.55-7.53-.17-.38-.36-.75-.57-1.1-1.19-1.99-3.06-3.49-5.16-4.25-2.14-.77-4.54-.8-6.75,.16-.34,.15-.68,.32-1.02,.52-1.5,.9-2.55,2.19-3.14,3.63-.53,1.3-.68,2.71-.45,4.06,.24,1.38,.88,2.69,1.93,3.73,1.03,1.02,2.44,1.76,4.23,2.03,1.08,.16,2.09-.59,2.25-1.67,.16-1.08-.59-2.09-1.67-2.24-.89-.13-1.57-.47-2.03-.93-.43-.43-.7-.98-.8-1.58-.11-.62-.03-1.29,.22-1.91,.28-.68,.78-1.3,1.49-1.73,.18-.11,.37-.21,.57-.29,1.23-.54,2.59-.52,3.82-.07,1.27,.46,2.39,1.36,3.11,2.56,.12,.21,.24,.43,.34,.66,.78,1.79,.84,4.12-.21,6.64-.95,2.27-2.8,4.68-5.82,7-7.23,4.51-15.4,7.73-23.74,8.99-10.16,1.55-20.56,.2-29.77-5.2-2.9-1.7-5.45-3.94-7.5-6.59,3.95,2.9,8.57,4.21,13.15,4.19,3.07-.01,6.1-.63,8.9-1.75,2.81-1.13,5.39-2.79,7.51-4.88,3.59-3.54,5.89-8.33,5.86-13.97-.01-2.86-.73-5.58-1.98-7.99-1.3-2.51-3.17-4.69-5.41-6.33-.25-.18-.47-.34-.65-.46-4.26-2.87-8.62-3.43-12.46-2.54-3.83,.89-7.11,3.23-9.25,6.15-.14,.2-.26,.36-.35,.5-1.88,2.79-2.49,5.66-2.2,8.3,.26,2.31,1.21,4.42,2.61,6.14,1.39,1.71,3.23,3.03,5.26,3.78,2.37,.87,5,.95,7.51-.04,.38-.15,.68-.4,.9-.71,2.04-1.54,2.63-4.4,1.27-6.63-1.44-2.38-4.54-3.13-6.92-1.69-1.75,1.06-2.62,3.02-2.38,4.93-.98-.52-1.86-1.24-2.57-2.12-.93-1.15-1.57-2.56-1.74-4.08-.2-1.76,.24-3.7,1.55-5.65,.11-.16,.19-.28,.26-.37,1.62-2.21,4.08-3.97,6.95-4.63,2.85-.66,6.11-.22,9.36,1.97,.21,.14,.38,.26,.52,.37,1.75,1.28,3.22,2.99,4.24,4.96,.97,1.88,1.54,3.99,1.55,6.19,.02,4.49-1.81,8.31-4.68,11.14-1.75,1.73-3.88,3.09-6.21,4.03-2.35,.95-4.89,1.46-7.44,1.47-4.63,.02-9.3-1.6-12.93-5.28-1.62-1.65-2.86-3.47-3.79-5.4-.94-1.94-1.57-3.99-1.97-6.04,0-.03-.01-.06-.02-.09-.06-.3-.12-.59-.19-.88-.95-4.15-2.94-8.06-5.97-11.25l-.31-.31c-3.72-3.77-8.99-6.41-14.35-7.13-5.49-.74-11.11,.5-15.38,4.56l-.24,.24c-1.83,1.81-3.12,3.98-3.87,6.28-.1,.3-.18,.6-.26,.9-1.09-1.92-2.51-3.77-4.28-5.51,1.72-1.36,3.18-2.8,4.35-4.3,2.48-3.15,3.74-6.56,3.72-10.09-.02-3.5-1.3-7.05-3.89-10.49-.97-1.29-2.13-2.57-3.48-3.83,.79-.89,1.27-2.06,1.27-3.35,0-1.94-1.1-3.62-2.71-4.46,1.57-4.36,4.25-8.44,8.17-10.23-7.19-3.37-8.4-10.75-10.5-22.61-2.1,11.86-3.31,19.24-10.5,22.61,3.92,1.79,6.61,5.87,8.17,10.23-1.61,.84-2.71,2.52-2.71,4.46,0,1.29,.48,2.46,1.27,3.35-1.35,1.26-2.51,2.54-3.48,3.83-2.6,3.44-3.88,6.99-3.9,10.49-.02,3.53,1.24,6.94,3.72,10.09,1.18,1.5,2.63,2.93,4.35,4.3-1.77,1.75-3.19,3.6-4.28,5.51-.08-.3-.17-.6-.26-.9-.75-2.31-2.04-4.48-3.86-6.28h0l-.25-.24c-4.27-4.05-9.88-5.3-15.38-4.56-5.36,.72-10.63,3.37-14.35,7.13l-.31,.31c-3.03,3.19-5.02,7.1-5.97,11.25-.07,.29-.12,.57-.18,.86,0,.04-.02,.07-.02,.11-.4,2.05-1.03,4.1-1.97,6.04-.93,1.92-2.17,3.75-3.79,5.4-3.63,3.68-8.31,5.3-12.93,5.28-2.55-.01-5.09-.53-7.44-1.47-2.33-.94-4.46-2.31-6.21-4.03-2.87-2.83-4.71-6.65-4.69-11.14,.01-2.2,.57-4.31,1.55-6.19,1.02-1.97,2.48-3.67,4.24-4.96,.14-.1,.31-.22,.52-.37,3.25-2.19,6.52-2.63,9.36-1.97,2.86,.66,5.33,2.43,6.95,4.63,.06,.09,.15,.21,.26,.37,1.31,1.95,1.74,3.9,1.55,5.65-.17,1.53-.81,2.94-1.74,4.08-.72,.88-1.6,1.61-2.57,2.12,.24-1.91-.63-3.87-2.38-4.93-2.38-1.44-5.47-.69-6.92,1.69-1.35,2.23-.77,5.1,1.27,6.63,.22,.31,.52,.56,.9,.71,2.51,.99,5.14,.91,7.51,.04,2.03-.74,3.87-2.07,5.26-3.78,1.4-1.72,2.35-3.83,2.61-6.14,.29-2.64-.32-5.51-2.2-8.3-.09-.13-.21-.3-.35-.5-2.14-2.92-5.43-5.26-9.25-6.15-3.84-.89-8.2-.33-12.46,2.54-.18,.12-.4,.28-.65,.46-2.24,1.64-4.11,3.82-5.41,6.33-1.24,2.41-1.97,5.13-1.98,7.99-.03,5.64,2.27,10.43,5.86,13.97,2.12,2.1,4.7,3.75,7.51,4.89,2.79,1.13,5.83,1.74,8.9,1.75,4.57,.02,9.19-1.28,13.15-4.19-2.05,2.65-4.6,4.89-7.5,6.59-9.21,5.41-19.61,6.75-29.77,5.2-8.34-1.27-16.51-4.48-23.74-8.99-3.02-2.32-4.87-4.73-5.82-7-1.05-2.51-.99-4.84-.21-6.64,.1-.23,.21-.45,.34-.66,.72-1.2,1.84-2.1,3.11-2.56,1.23-.44,2.59-.47,3.82,.07,.19,.08,.38,.18,.57,.29,.71,.43,1.22,1.05,1.49,1.73,.25,.62,.32,1.28,.22,1.91-.1,.59-.37,1.15-.8,1.57-.46,.46-1.14,.8-2.03,.93-1.08,.16-1.83,1.16-1.67,2.24,.16,1.08,1.16,1.83,2.25,1.67,1.79-.27,3.2-1.01,4.23-2.03,1.05-1.04,1.7-2.35,1.93-3.73,.23-1.35,.08-2.76-.45-4.06-.59-1.44-1.64-2.74-3.14-3.63-.33-.2-.67-.37-1.02-.52-2.21-.96-4.61-.94-6.75-.16-2.1,.76-3.96,2.25-5.16,4.25-.21,.36-.4,.72-.57,1.1-.94,2.16-1.22,4.76-.55,7.53-1.23-1.01-2.42-1.96-3.58-2.82-1.93-1.44-3.76-2.62-5.52-3.45h0c-.26-.13-.46-.22-.61-.28-4.79-2.06-9.44-1.81-13.32-.16-3.86,1.64-6.95,4.69-8.62,8.24l-.22,.48c-.92,2.14-1.31,4.45-1.19,6.73,.03,.66,.11,1.32,.23,1.98,.1,2.78-.85,4.6-2.24,5.6-.73,.53-1.6,.85-2.51,.97-.94,.13-1.91,.06-2.83-.2-1.74-.5-3.21-1.68-3.66-3.4-.38-1.45-.04-2.52,.62-3.17,.3-.29,.66-.51,1.06-.64,.4-.14,.83-.19,1.23-.15,.79,.08,1.54,.55,1.92,1.46,.42,1.01,1.57,1.49,2.58,1.08,1.01-.42,1.49-1.57,1.08-2.58-1-2.43-3.02-3.67-5.17-3.89-.98-.1-1.97,.02-2.9,.33-.94,.32-1.82,.85-2.54,1.56-1.6,1.56-2.48,3.96-1.69,6.99Zm182.36-18.52c.12-.59,.21-1.19,.28-1.78,.99,1.23,2.17,2.23,3.44,3.01,3.04,1.86,6.68,2.45,9.95,1.93l.45-.08c5.34-1.02,8.1-4.47,8.87-8.26,.35-1.7,.28-3.44-.13-5.05-.42-1.64-1.2-3.16-2.3-4.38-2.19-2.43-5.51-3.61-9.51-2.09-.54,.21-.94,.62-1.14,1.12-.65,.64-1.14,1.46-1.37,2.4-.66,2.7,.99,5.43,3.69,6.09,2.7,.66,5.43-.99,6.09-3.7,.01-.05,.02-.1,.03-.15,.29,.51,.51,1.07,.66,1.67,.27,1.07,.32,2.2,.1,3.29-.48,2.35-2.25,4.5-5.73,5.16l-.33,.06c-2.4,.38-5.07-.05-7.29-1.4-2.19-1.34-3.95-3.61-4.58-6.95l-.08-.44c-.29-1.84-.14-3.76,.45-5.57,.56-1.73,1.52-3.35,2.87-4.69l.2-.19c3.31-3.14,7.74-4.09,12.13-3.5,4.51,.61,8.94,2.83,12.06,5.99l.26,.27c2.52,2.66,4.19,5.92,4.98,9.39,.06,.25,.11,.5,.16,.75h0s0,.07,.02,.1l.03,.14v.02l.02,.11c0,.06,0,.12,0,.19,.03,1.27,.14,2.52,.32,3.74-.02,2-.32,4.01-.89,5.95-.12,.41-.27,.85-.44,1.32-2.22,5.98-7,10.23-12.71,12.56-5.8,2.36-12.54,2.75-18.58,.97-.5-.15-1.05-.33-1.63-.55-2.65-.98-5.11-2.41-7.27-4.17,.66-.72,1.28-1.46,1.86-2.24,2.5-3.31,4.26-7.1,5.05-11.04Zm-14.09-27.7c-1.92-2.45-2.9-5.02-2.89-7.63,.01-2.63,1.03-5.37,3.11-8.12,1.08-1.43,2.44-2.86,4.08-4.27,1.65,1.41,3,2.84,4.08,4.27,2.07,2.75,3.09,5.49,3.1,8.12,.01,2.61-.96,5.18-2.89,7.63-1.11,1.41-2.53,2.78-4.26,4.08l-.04,.03-.04-.03c-1.73-1.3-3.15-2.67-4.26-4.08Zm-.86,16.93c.99-2.67,2.67-5.26,5.16-7.64,2.49,2.38,4.17,4.97,5.16,7.64,1.22,3.28,1.39,6.71,.74,10.01-.66,3.35-2.18,6.57-4.32,9.42-.5,.66-1.02,1.29-1.58,1.9-.56-.61-1.09-1.25-1.58-1.9-2.14-2.84-3.65-6.07-4.32-9.42-.65-3.3-.48-6.72,.74-10.01Zm-38.92,4.04l.03-.17,.02-.09v-.08c.06-.26,.11-.52,.17-.77,.79-3.47,2.46-6.73,4.98-9.39l.26-.27c3.12-3.16,7.55-5.38,12.06-5.99,4.38-.59,8.82,.36,12.13,3.5l.19,.19h0c1.36,1.35,2.32,2.97,2.88,4.69,.59,1.81,.74,3.74,.45,5.57l-.08,.44c-.64,3.34-2.4,5.62-4.58,6.95-2.22,1.36-4.89,1.78-7.29,1.4l-.33-.06c-3.48-.66-5.25-2.82-5.73-5.16-.22-1.08-.18-2.22,.1-3.29,.15-.59,.37-1.16,.66-1.67,.01,.05,.02,.1,.03,.15,.66,2.7,3.39,4.36,6.09,3.7,2.7-.66,4.36-3.39,3.69-6.09-.23-.95-.72-1.77-1.37-2.4-.2-.5-.6-.92-1.14-1.12-4-1.53-7.32-.35-9.51,2.09-1.09,1.21-1.87,2.74-2.29,4.38-.41,1.61-.47,3.36-.13,5.05,.77,3.79,3.52,7.24,8.87,8.26,.09,.02,.24,.04,.45,.08,3.27,.51,6.91-.07,9.95-1.93,1.28-.78,2.45-1.78,3.44-3.01,.07,.6,.17,1.19,.28,1.78,.78,3.95,2.55,7.73,5.05,11.04,.58,.77,1.2,1.52,1.86,2.24-2.16,1.75-4.62,3.18-7.27,4.17-.58,.21-1.12,.4-1.63,.55-6.03,1.78-12.77,1.4-18.58-.97-5.71-2.33-10.49-6.58-12.71-12.56-.17-.47-.32-.91-.44-1.32-.58-1.94-.87-3.95-.89-5.96,.18-1.22,.29-2.47,.32-3.74,0-.06,0-.12,0-.18Z"/></svg>