<?xml version="1.0" encoding="UTF-8"?><svg id="Layer_1" xmlns="http://www.w3.org/2000/svg" xmlns:xlink="http://www.w3.org/1999/xlink" viewBox="0 0 1000 1000"><defs><style>.cls-1,.cls-2{fill:#fff;}.cls-2{fill-rule:evenodd;}.cls-3{clip-path:url(#clippath-6);}.cls-4{clip-path:url(#clippath-7);}.cls-5{clip-path:url(#clippath-4);}.cls-6{clip-path:url(#clippath-5);}</style><clipPath id="clippath-4"><path class="cls-1" d="M182.91,813.98l23.63,51.49,46.45-103.08h-46.48"/></clipPath><clipPath id="clippath-5"><path class="cls-1" d="M958.72,764.99v85.23l41.28,34.58v-119.8h-41.28Z"/></clipPath><clipPath id="clippath-6"><polygon class="cls-1" points="294.68 538.11 311.26 512.61 225.39 358.09 266.81 294.69 169.96 292.94 294.68 538.11"/></clipPath><clipPath id="clippath-7"><polygon class="cls-1" points="728.33 295.04 770.9 360.21 685.59 515.58 700.46 538.46 825.18 293.3 728.33 295.04"/></clipPath></defs><g><polygon class="cls-1" points="0 762.75 87.63 953.29 126.9 864.59 166.97 953.29 190.5 901.07 166.49 847.8 127.3 762.39 87.63 848.84 46.35 762.75 0 762.75"/><g><path class="cls-1" d="M182.91,813.98l23.63,51.49,46.45-103.08h-46.48"/><g class="cls-5"><rect class="cls-1" x="182.91" y="762.39" width="70.08" height="103.08"/></g></g><polygon class="cls-1" points="835.12 951.06 876.4 951.06 876.4 849.25 1000 951.06 1000 900.92 933.9 846.25 835.12 764.99 835.12 951.06"/><g><path class="cls-1" d="M958.72,764.99v85.23l41.28,34.58v-119.8h-41.28Z"/><g class="cls-6"><rect class="cls-1" x="958.72" y="764.99" width="41.28" height="119.8"/></g></g><polygon class="cls-1" points="725.07 771.27 634.77 953.29 643.67 953.29 670.89 953.29 672.59 953.29 679.79 953.29 680.28 953.29 736.34 953.29 707.62 898.08 699.44 915.16 707.62 898.08 729.65 853.1 746.14 886.5 746.07 886.5 779.67 953.29 786.59 953.29 788.42 953.29 815.64 953.29 824.54 953.29 734.1 771.38 729.52 762.39 725.07 771.27"/><path class="cls-1" d="M597.69,771.45l-90.31,182.02h101.58l-28.72-55.21,22.03-44.98,16.49,33.4h-.08l20.11,39.96c6.69-16.73,13.39-33.46,20.07-50.19l-52.14-104.88-4.58-9-4.45,8.88Z"/><polygon class="cls-1" points="273.22 769.32 182.91 951.34 191.81 951.34 219.03 951.34 220.73 951.34 227.93 951.34 228.41 951.34 284.48 951.34 255.76 896.13 247.59 913.21 255.76 896.13 277.79 851.15 294.29 884.55 294.21 884.55 327.82 951.34 334.73 951.34 336.56 951.34 363.78 951.34 372.68 951.34 282.25 769.44 277.67 760.44 273.22 769.32"/><path class="cls-1" d="M423.5,800.81c18.25,0,33.89,5.61,46.91,16.84,13.02,11.23,19.53,24.69,19.53,40.37s-6.51,29.22-19.53,40.37c-13.02,11.15-28.66,16.72-46.91,16.72v-114.31Zm-44.44-38.05v190.54h44.44c30.45,0,56.54-9.31,78.28-27.95,21.74-18.63,32.6-41.07,32.6-67.32s-10.87-48.58-32.6-67.25c-21.74-18.67-47.83-28.01-78.28-28.01h-44.44Z"/></g><g><g><path class="cls-1" d="M599.73,188.9l103.49,171.01-143.58,234.02-62.77-84.11c.04,5.21-.04,10.37-.18,15.55,.06-5.18,.15-10.36,.18-15.55l-62.76,84.11-143.59-234.02,103.49-171.01h-43.55l-106.87,173.57,185.86,311.32,66.24-95.64c.01-.16,.01-.31,.02-.46v.06l68.57,96.05,185.87-311.32-106.87-173.57h-43.56Z"/><polygon class="cls-1" points="71.62 236.96 293.36 663.42 349.76 560.78 324.13 517.63 294.42 570.39 141.01 278.62 279.87 277.44 302.95 236.13 71.62 236.96"/><polygon class="cls-1" points="496.26 198.69 413.8 358.35 360.28 453.44 385.57 495.61 496.99 292.78 608.29 495.33 632.08 450.51 580.19 358.35 497.75 198.69 497.04 197.17 496.26 198.69"/><polygon class="cls-1" points="714.13 277.44 853 278.62 699.57 570.39 668.57 515.32 644.1 560.52 700.63 663.42 922.14 236.96 691.04 236.13 714.13 277.44"/><g><polygon class="cls-1" points="294.68 538.11 311.26 512.61 225.39 358.09 266.81 294.69 169.96 292.94 294.68 538.11"/><g class="cls-3"><rect class="cls-1" x="117.79" y="344.45" width="245.64" height="142.17" transform="translate(-175.71 654.76) rotate(-89.81)"/></g></g><g><polygon class="cls-1" points="728.33 295.04 770.9 360.21 685.59 515.58 700.46 538.46 825.18 293.3 728.33 295.04"/><g class="cls-4"><rect class="cls-1" x="632.58" y="345.65" width="245.62" height="140.46" transform="translate(337.01 1169.89) rotate(-89.81)"/></g></g></g><polygon class="cls-1" points="403.5 494.3 497.08 329.29 589.19 494.3 556.23 553.39 496.88 478.34 435.91 554.95 403.5 494.3"/></g><path class="cls-2" d="M333.85,155.25c.84,3.22,3.41,5.36,6.4,6.22,1.43,.41,2.96,.52,4.45,.31,1.52-.22,2.99-.77,4.27-1.69,.98-.71,1.84-1.62,2.5-2.74,1.93,2.69,4.51,4.32,7.24,5.07,2.24,.61,4.57,.62,6.7,.13,2.17-.51,4.16-1.55,5.69-3.03,1.87-1.81,3.03-4.24,3-7.14-.03-2.47-1.03-4.88-3.02-6.59-1.68-1.44-4.05-2.36-7.1-2.33-.41,0-.79,.13-1.11,.35-2.13,.54-3.73,2.46-3.78,4.76-.06,2.78,2.14,5.08,4.92,5.14,2.57,.06,4.74-1.83,5.09-4.32,.69,.86,1.04,1.92,1.05,3.01,.02,1.74-.68,3.2-1.8,4.28-1,.97-2.35,1.66-3.84,2.01-1.53,.36-3.18,.35-4.76-.08-2.23-.61-4.34-2.09-5.74-4.63-.57-1.03-.97-2.14-1.19-3.29v-.02h0c-.1-.52-.16-1.04-.19-1.56-.09-1.67,.2-3.38,.88-4.96l.13-.3,.03-.05c1.27-2.71,3.63-5.03,6.58-6.29,2.94-1.25,6.5-1.42,10.19,.17,.21,.09,.38,.16,.49,.22h0c1.48,.69,3.1,1.75,4.84,3.05,1.77,1.32,3.7,2.92,5.76,4.66,2.54,2.15,5.27,4.15,8.14,5.95,.03,.02,.06,.04,.09,.05,7.68,4.8,16.37,8.22,25.26,9.57,10.98,1.67,22.27,.19,32.33-5.71,4.44-2.6,8.15-6.3,10.76-10.72,.48-.81,.92-1.65,1.32-2.5,.04,.12,.08,.23,.12,.34,2.63,7.09,8.24,12.11,14.93,14.84,6.6,2.69,14.28,3.12,21.16,1.09,.68-.2,1.31-.41,1.89-.62,3.21-1.19,6.18-2.95,8.76-5.12,2.59,2.17,5.55,3.93,8.77,5.12,.58,.21,1.21,.42,1.89,.62,6.88,2.03,14.56,1.6,21.16-1.09,6.69-2.72,12.3-7.74,14.93-14.84,.04-.11,.08-.22,.12-.34,.4,.86,.84,1.69,1.32,2.5,2.61,4.42,6.32,8.12,10.76,10.72,10.06,5.9,21.35,7.38,32.33,5.71,8.88-1.35,17.58-4.77,25.26-9.57,.03-.02,.06-.03,.08-.05,2.87-1.8,5.6-3.8,8.15-5.95,2.06-1.74,3.98-3.34,5.76-4.66,1.75-1.3,3.36-2.35,4.84-3.05h0c.11-.05,.27-.13,.49-.22,3.7-1.59,7.25-1.42,10.2-.17,2.96,1.26,5.31,3.58,6.58,6.29l.03,.05,.13,.3c.68,1.58,.97,3.28,.88,4.96-.03,.52-.09,1.05-.19,1.56h0v.02c-.23,1.15-.63,2.26-1.2,3.29-1.41,2.54-3.51,4.02-5.74,4.63-1.58,.43-3.23,.44-4.76,.08-1.49-.35-2.84-1.04-3.84-2.01-1.12-1.09-1.82-2.55-1.8-4.28,.01-1.09,.36-2.15,1.05-3.01,.35,2.49,2.52,4.38,5.09,4.32,2.78-.06,4.98-2.36,4.92-5.14-.05-2.31-1.65-4.22-3.78-4.76-.32-.22-.7-.35-1.11-.35-3.05-.03-5.42,.89-7.1,2.33-1.99,1.71-2.99,4.12-3.02,6.59-.03,2.91,1.13,5.34,3,7.14,1.53,1.48,3.52,2.52,5.69,3.03,2.13,.5,4.46,.49,6.7-.13,2.73-.75,5.32-2.38,7.24-5.07,.66,1.12,1.51,2.03,2.5,2.74,1.28,.92,2.75,1.47,4.27,1.69,1.49,.21,3.02,.1,4.45-.31,2.99-.85,5.56-3,6.4-6.22,.79-3.02-.09-5.42-1.69-6.99-.73-.71-1.6-1.23-2.54-1.55-.93-.32-1.93-.43-2.9-.33-2.14,.22-4.16,1.46-5.16,3.89-.41,1.01,.07,2.16,1.07,2.58,1.01,.41,2.16-.07,2.58-1.08,.38-.91,1.12-1.38,1.91-1.46,.4-.04,.83,0,1.23,.15,.39,.13,.76,.35,1.06,.64,.66,.64,1,1.71,.62,3.16-.45,1.73-1.92,2.91-3.66,3.4-.91,.26-1.89,.33-2.82,.2-.91-.13-1.77-.45-2.5-.97-1.39-1-2.34-2.82-2.24-5.6,.12-.65,.2-1.31,.23-1.97,.12-2.28-.27-4.58-1.19-6.72l-.22-.48c-1.67-3.55-4.75-6.6-8.61-8.24-3.87-1.65-8.52-1.89-13.3,.16-.15,.07-.35,.16-.61,.28h0c-1.76,.83-3.59,2.02-5.52,3.45-1.16,.87-2.35,1.81-3.58,2.82,.67-2.77,.39-5.37-.55-7.52-.17-.38-.36-.75-.57-1.1-1.19-1.99-3.05-3.48-5.15-4.24-2.14-.77-4.53-.8-6.74,.16-.34,.15-.68,.32-1.01,.52-1.5,.9-2.55,2.19-3.13,3.63-.53,1.3-.68,2.71-.45,4.06,.24,1.38,.88,2.68,1.93,3.72,1.03,1.02,2.44,1.76,4.23,2.03,1.08,.16,2.09-.59,2.24-1.67,.16-1.08-.59-2.08-1.67-2.24-.89-.13-1.57-.47-2.03-.93-.43-.43-.7-.98-.8-1.57-.11-.62-.03-1.29,.22-1.91,.28-.68,.78-1.3,1.49-1.73,.18-.11,.37-.21,.57-.29,1.23-.54,2.59-.52,3.82-.07,1.27,.46,2.39,1.36,3.11,2.56,.12,.21,.24,.43,.34,.65,.78,1.79,.84,4.12-.21,6.63-.95,2.27-2.8,4.68-5.81,6.99-7.22,4.51-15.38,7.72-23.72,8.99-10.15,1.54-20.54,.2-29.75-5.2-2.9-1.7-5.44-3.94-7.49-6.59,3.95,2.9,8.57,4.21,13.14,4.19,3.06-.01,6.1-.63,8.89-1.75,2.81-1.13,5.38-2.79,7.5-4.88,3.59-3.54,5.88-8.32,5.86-13.96-.01-2.85-.73-5.57-1.98-7.98-1.3-2.51-3.17-4.69-5.41-6.33-.25-.18-.47-.34-.65-.46-4.26-2.87-8.61-3.43-12.45-2.54-3.82,.89-7.1,3.22-9.25,6.14-.14,.2-.26,.36-.35,.5-1.88,2.79-2.49,5.66-2.2,8.29,.26,2.31,1.21,4.42,2.61,6.14,1.39,1.71,3.22,3.03,5.26,3.77,2.36,.86,4.99,.95,7.5-.04,.38-.15,.68-.4,.9-.71,2.04-1.54,2.62-4.4,1.27-6.63-1.44-2.38-4.54-3.13-6.91-1.69-1.75,1.06-2.62,3.02-2.38,4.93-.98-.52-1.86-1.24-2.57-2.12-.93-1.15-1.57-2.55-1.74-4.08-.19-1.76,.24-3.7,1.55-5.65,.11-.16,.19-.28,.26-.37,1.62-2.21,4.08-3.97,6.94-4.63,2.84-.66,6.11-.22,9.35,1.97,.21,.14,.38,.26,.52,.37,1.75,1.28,3.22,2.99,4.23,4.95,.97,1.88,1.53,3.99,1.54,6.19,.02,4.49-1.81,8.3-4.68,11.13-1.75,1.72-3.88,3.09-6.21,4.03-2.35,.95-4.89,1.46-7.44,1.47-4.62,.02-9.29-1.6-12.92-5.28-1.62-1.64-2.86-3.47-3.79-5.39-.94-1.94-1.57-3.99-1.97-6.04,0-.03-.01-.06-.02-.09-.06-.3-.12-.59-.19-.88-.95-4.15-2.94-8.05-5.97-11.24l-.31-.31c-3.72-3.76-8.98-6.4-14.34-7.12-5.49-.74-11.1,.5-15.36,4.55l-.24,.24c-1.83,1.81-3.11,3.97-3.86,6.27-.1,.3-.18,.6-.26,.9-1.09-1.91-2.5-3.76-4.27-5.51,1.72-1.36,3.17-2.8,4.35-4.29,2.48-3.15,3.74-6.56,3.72-10.08-.02-3.5-1.3-7.04-3.89-10.48-.97-1.29-2.13-2.57-3.48-3.83,.79-.89,1.27-2.06,1.27-3.34,0-1.94-1.1-3.62-2.7-4.46,1.56-4.36,4.25-8.43,8.16-10.22-7.19-3.36-8.39-10.74-10.49-22.59-2.1,11.85-3.3,19.22-10.49,22.59,3.92,1.78,6.6,5.86,8.16,10.22-1.61,.84-2.7,2.52-2.7,4.46,0,1.28,.48,2.46,1.27,3.34-1.35,1.26-2.5,2.54-3.48,3.83-2.59,3.44-3.87,6.98-3.89,10.48-.02,3.52,1.24,6.93,3.72,10.08,1.18,1.49,2.63,2.93,4.35,4.29-1.77,1.74-3.18,3.59-4.27,5.51-.08-.3-.17-.6-.26-.9-.75-2.31-2.04-4.48-3.86-6.27h0l-.25-.24c-4.26-4.05-9.88-5.29-15.36-4.55-5.36,.72-10.62,3.36-14.34,7.12l-.31,.31c-3.02,3.18-5.02,7.09-5.97,11.24-.07,.29-.12,.57-.18,.86,0,.04-.02,.07-.02,.11-.4,2.05-1.03,4.1-1.97,6.04-.93,1.92-2.17,3.75-3.79,5.39-3.63,3.68-8.3,5.3-12.92,5.28-2.55-.01-5.09-.53-7.44-1.47-2.33-.94-4.46-2.31-6.21-4.03-2.87-2.83-4.7-6.64-4.68-11.13,.01-2.2,.57-4.31,1.55-6.19,1.02-1.96,2.48-3.67,4.23-4.95,.14-.1,.31-.22,.52-.37,3.25-2.19,6.51-2.63,9.36-1.97,2.86,.66,5.32,2.42,6.94,4.63,.06,.09,.15,.21,.26,.37,1.31,1.95,1.74,3.89,1.55,5.65-.17,1.53-.81,2.93-1.74,4.08-.71,.88-1.59,1.6-2.57,2.12,.24-1.91-.63-3.86-2.38-4.93-2.37-1.44-5.47-.69-6.91,1.69-1.35,2.23-.77,5.09,1.27,6.63,.21,.31,.52,.56,.9,.71,2.51,.99,5.14,.91,7.5,.04,2.03-.74,3.87-2.07,5.26-3.77,1.4-1.72,2.35-3.83,2.6-6.14,.29-2.64-.32-5.5-2.2-8.29-.09-.13-.21-.3-.35-.5-2.14-2.92-5.42-5.26-9.25-6.14-3.84-.89-8.19-.33-12.45,2.54-.18,.12-.4,.28-.65,.46-2.24,1.64-4.11,3.82-5.41,6.33-1.24,2.41-1.96,5.13-1.98,7.98-.03,5.64,2.27,10.42,5.86,13.96,2.12,2.09,4.7,3.75,7.51,4.88,2.79,1.12,5.83,1.74,8.89,1.75,4.57,.02,9.18-1.28,13.14-4.19-2.05,2.65-4.59,4.89-7.49,6.59-9.21,5.4-19.6,6.74-29.75,5.2-8.33-1.27-16.49-4.48-23.72-8.99-3.01-2.31-4.86-4.72-5.81-6.99-1.05-2.51-.99-4.84-.21-6.63,.1-.23,.21-.45,.34-.65,.72-1.2,1.84-2.1,3.11-2.56,1.23-.44,2.59-.47,3.82,.07,.19,.08,.38,.18,.57,.29,.71,.43,1.21,1.05,1.49,1.73,.25,.62,.32,1.28,.22,1.91-.1,.59-.37,1.15-.8,1.57-.46,.46-1.14,.8-2.03,.93-1.08,.16-1.83,1.16-1.67,2.24,.16,1.08,1.16,1.83,2.24,1.67,1.78-.27,3.19-1.01,4.22-2.03,1.05-1.04,1.69-2.34,1.93-3.72,.23-1.35,.08-2.76-.45-4.06-.59-1.44-1.64-2.74-3.13-3.63-.33-.2-.67-.37-1.01-.52-2.21-.96-4.6-.94-6.74-.16-2.1,.76-3.96,2.25-5.15,4.24-.21,.36-.4,.72-.57,1.1-.94,2.16-1.22,4.76-.55,7.52-1.23-1.01-2.42-1.96-3.58-2.82-1.93-1.43-3.76-2.62-5.52-3.45h0c-.26-.12-.46-.22-.61-.28-4.78-2.06-9.43-1.81-13.3-.16-3.86,1.64-6.94,4.69-8.61,8.24l-.22,.48c-.92,2.14-1.31,4.45-1.19,6.72,.03,.66,.11,1.32,.23,1.97,.1,2.78-.85,4.6-2.24,5.6-.73,.52-1.6,.84-2.5,.97-.94,.13-1.91,.06-2.82-.2-1.73-.5-3.21-1.67-3.66-3.4-.38-1.45-.04-2.52,.62-3.16,.3-.29,.66-.51,1.06-.64,.4-.14,.82-.19,1.23-.15,.79,.08,1.54,.55,1.91,1.46,.41,1.01,1.57,1.49,2.58,1.08,1.01-.41,1.49-1.57,1.07-2.58-1-2.43-3.02-3.67-5.16-3.89-.97-.1-1.97,.02-2.9,.33-.94,.32-1.81,.84-2.54,1.55-1.6,1.56-2.48,3.96-1.69,6.99Zm182.2-18.5c.12-.59,.21-1.19,.28-1.78,.99,1.23,2.16,2.22,3.44,3,3.04,1.86,6.68,2.44,9.94,1.93l.45-.08c5.34-1.01,8.09-4.47,8.86-8.25,.34-1.69,.28-3.44-.13-5.05-.42-1.64-1.2-3.16-2.29-4.37-2.19-2.43-5.51-3.61-9.5-2.08-.54,.21-.94,.62-1.14,1.12-.65,.63-1.14,1.45-1.37,2.4-.66,2.7,.99,5.42,3.69,6.08,2.7,.66,5.42-.99,6.08-3.69,.01-.05,.02-.1,.03-.15,.29,.51,.51,1.07,.66,1.67,.27,1.07,.32,2.2,.1,3.28-.48,2.34-2.25,4.5-5.72,5.16l-.33,.06c-2.4,.38-5.06-.05-7.28-1.4-2.18-1.33-3.94-3.61-4.58-6.95l-.08-.44c-.29-1.84-.14-3.76,.45-5.57,.56-1.73,1.52-3.34,2.87-4.68l.2-.19c3.3-3.14,7.74-4.09,12.12-3.5,4.51,.61,8.93,2.82,12.05,5.98l.26,.27c2.52,2.66,4.19,5.92,4.98,9.38,.06,.25,.11,.5,.16,.75h0s0,.07,.02,.1l.03,.14v.02l.02,.11c0,.06,0,.12,0,.19,.03,1.27,.14,2.51,.32,3.74-.02,2-.32,4.01-.89,5.95-.12,.4-.27,.84-.44,1.32-2.22,5.97-6.99,10.22-12.7,12.55-5.8,2.36-12.53,2.75-18.56,.96-.5-.15-1.05-.33-1.62-.55-2.65-.98-5.1-2.41-7.27-4.16,.66-.72,1.28-1.46,1.86-2.23,2.49-3.31,4.26-7.09,5.04-11.03Zm-14.08-27.67c-1.92-2.44-2.9-5.02-2.88-7.62,.01-2.63,1.03-5.37,3.1-8.12,1.08-1.43,2.43-2.85,4.08-4.26,1.64,1.41,3,2.84,4.08,4.26,2.07,2.75,3.09,5.49,3.1,8.12,.01,2.6-.96,5.18-2.88,7.62-1.11,1.41-2.53,2.77-4.26,4.07l-.04,.03-.04-.03c-1.73-1.3-3.15-2.67-4.26-4.07Zm-.86,16.91c.99-2.66,2.67-5.25,5.16-7.63,2.49,2.38,4.17,4.97,5.16,7.63,1.22,3.28,1.39,6.7,.74,10-.66,3.34-2.17,6.57-4.31,9.41-.5,.66-1.02,1.29-1.58,1.9-.56-.61-1.09-1.25-1.58-1.9-2.14-2.84-3.65-6.06-4.31-9.41-.65-3.3-.48-6.72,.74-10Zm-38.89,4.03l.03-.17,.02-.09v-.08c.06-.26,.11-.52,.17-.77,.79-3.47,2.46-6.73,4.98-9.38l.26-.27c3.12-3.16,7.54-5.37,12.05-5.98,4.38-.59,8.81,.36,12.12,3.5l.19,.19h0c1.36,1.35,2.32,2.97,2.88,4.69,.59,1.81,.74,3.73,.45,5.57l-.08,.44c-.64,3.34-2.39,5.61-4.58,6.95-2.22,1.36-4.88,1.78-7.28,1.4l-.33-.06c-3.47-.66-5.24-2.81-5.72-5.16-.22-1.08-.18-2.22,.1-3.28,.15-.59,.37-1.16,.66-1.67,.01,.05,.02,.1,.03,.15,.66,2.7,3.38,4.35,6.08,3.69,2.7-.66,4.35-3.38,3.69-6.08-.23-.95-.72-1.77-1.37-2.4-.2-.5-.6-.91-1.14-1.12-4-1.53-7.32-.35-9.51,2.08-1.09,1.21-1.87,2.73-2.29,4.37-.41,1.61-.47,3.35-.13,5.05,.77,3.78,3.52,7.23,8.86,8.25,.09,.02,.24,.04,.45,.08,3.26,.51,6.9-.07,9.94-1.93,1.28-.78,2.45-1.78,3.44-3,.07,.6,.17,1.19,.28,1.78,.78,3.94,2.55,7.72,5.04,11.03,.58,.77,1.2,1.52,1.86,2.23-2.16,1.75-4.62,3.18-7.26,4.16-.58,.21-1.12,.4-1.63,.55-6.03,1.78-12.76,1.39-18.56-.97-5.71-2.32-10.48-6.57-12.7-12.55-.17-.47-.32-.91-.44-1.32-.58-1.94-.87-3.95-.89-5.95,.18-1.22,.29-2.47,.32-3.73,0-.06,0-.12,0-.18Z"/></svg>